<svg width="479" height="479" viewBox="0 0 479 479" fill="none" xmlns="http://www.w3.org/2000/svg">
<path d="M251.556 217.408C204.545 190.266 89.9388 234.84 59.6698 287.267C46.0372 310.88 53.7644 334.15 80.3631 349.507C109.277 366.2 138.165 360.254 161.354 373.642C184.744 387.146 194.093 415.168 222.752 431.715C249.35 447.071 273.366 442.128 286.999 418.516C317.268 366.088 298.567 244.55 251.556 217.408ZM169.291 158.537C176.669 131.539 166.467 105.406 146.509 100.162C126.551 94.918 104.395 112.554 97.017 139.552C89.6389 166.549 99.8412 192.683 119.799 197.927C139.757 203.171 161.913 185.535 169.291 158.537ZM227.563 173.435C249.059 178.503 274.551 155.513 284.503 122.089C294.454 88.6658 285.091 57.4692 263.595 52.4015C242.099 47.3337 216.606 70.3234 206.655 103.747C196.704 137.171 206.069 168.377 227.563 173.435ZM405.607 249.762C391.087 235.1 363.36 239.334 343.662 259.219C323.97 279.108 319.775 307.114 334.296 321.776C348.816 336.438 376.544 332.203 396.241 312.318C415.933 292.429 420.128 264.423 405.607 249.762ZM301.634 216.2C316.771 232.282 348.47 224.793 372.44 199.463C396.41 174.133 403.569 140.568 388.436 124.479C373.303 108.39 341.601 115.886 317.631 141.216C293.661 166.546 286.497 200.118 301.634 216.2Z" fill="#F7CB2D"/>
</svg>
